<svg xmlns="http://www.w3.org/2000/svg" viewBox="0 0 1197 700" width="700" height="409">
	<style>
		tspan { white-space:pre }
		.shp0 { fill: #1c252c } 
		.shp1 { fill: #ffed31 } 
	</style>
	<g id="Layer">
		<path id="path2998" fill-rule="evenodd" class="shp0" d="M98 64.24L220.59 64.24C273.43 64.24 312.68 91.04 312.68 130.59C312.68 161.5 292.83 176.24 275.34 183.26C304.05 191.92 330.16 208.46 330.16 244.7C330.16 298.31 282.11 316.56 230.11 316.56L98 316.56L98 64.24ZM178.93 160.65L208.69 160.65C220.44 160.65 230.04 151.07 230.04 142.12C230.04 132.5 220.8 123.01 208.69 123.01L178.93 123.01L178.93 160.65ZM178.93 213.02L178.93 258.47L215.83 258.47C232.67 258.47 243.43 247.97 243.43 235.33C243.43 223.43 231.92 213.02 218.21 213.02L178.93 213.02Z" />
		<path id="path3005" fill-rule="evenodd" class="shp0" d="M163.46 344.08L286.05 344.08C338.89 344.08 378.14 370.88 378.14 410.44C378.14 441.34 358.29 456.09 340.8 463.1C369.51 471.76 395.62 488.31 395.62 524.55C395.62 578.16 347.57 596.41 295.57 596.41L163.46 596.41L163.46 344.08ZM244.39 440.49L274.15 440.49C285.9 440.49 295.5 430.91 295.5 421.97C295.5 412.34 286.26 402.85 274.15 402.85L244.39 402.85L244.39 440.49ZM244.39 492.86L244.39 538.31L281.29 538.31C298.13 538.31 308.89 527.81 308.89 515.17C308.89 503.27 297.38 492.86 283.67 492.86L244.39 492.86Z" />
		<path id="path3007" class="shp0" d="M336.51 316.53L336.51 64.21L540.04 64.21L540.04 125.15L417.21 125.15L417.21 158.24L516.95 158.24L516.95 215.37L417.21 215.37L417.21 255.83L540.04 255.83L540.04 316.53L336.51 316.53Z" />
		<path id="path3009" class="shp0" d="M650.29 323.75C707.58 323.75 753.4 291.08 753.4 238.12C753.4 152.66 642.22 165.81 642.22 139.2C642.22 128.92 653.03 123.47 664.12 123.47C683.22 123.47 697.02 136.06 697.02 136.06L744.85 90.51C725.72 72.31 695.51 57 654.81 57C593.68 57 553.69 93.28 553.69 137.04C553.69 223.59 663.26 211.03 663.26 238.19C663.26 247.71 654.11 257.28 637.49 257.28C618.64 257.28 603.7 245.9 592.07 236.24L543.96 282.11C563.33 300.98 594.43 323.75 650.29 323.75L650.29 323.75Z" />
		<path id="path3011" class="shp0" d="M815.69 316.53L815.69 124.91L749.04 124.91L749.04 64.21L963.27 64.21L963.27 124.91L896.62 124.91L896.62 316.53L815.69 316.53Z" />
		<path id="path3013" class="shp0" d="M398.4 343.91L479.1 343.91L479.1 495.06C479.1 510.41 494.38 524.55 510.3 524.55C525.33 524.55 540.51 511.78 540.51 494.25L540.51 343.91L620.97 343.91L620.97 493.23C620.97 552.48 571.78 599.74 508.17 599.74C444.2 599.74 398.4 548.3 398.4 490L398.4 343.91Z" />
		<path id="path3015" class="shp0" d="M720.47 596.23L720.47 506.07L625.63 343.91L707.27 343.91L760.94 430.79L814.79 343.91L896.62 343.91L801.4 506.99L801.4 596.23L720.47 596.23Z" />
		<path id="path3017" class="shp1" d="M896.62 482L849.01 529.61L849.01 593.88L896.62 641.48L1098 641.48L1098 482L896.62 482Z" />
		<path id="path3024" class="shp0" d="M888.8 561.71C888.8 567.63 884 572.42 878.09 572.42C872.17 572.42 867.38 567.63 867.38 561.71C867.38 555.8 872.17 551 878.09 551C884 551 888.8 555.8 888.8 561.71Z" />
	</g>
</svg>